<mxfile host="app.diagrams.net" agent="Mozilla/5.0 (Windows NT 10.0; Win64; x64) AppleWebKit/537.36 (KHTML, like Gecko) Chrome/136.0.0.0 Safari/537.36 Edg/136.0.0.0" version="27.0.3">
  <diagram name="Pagina-1" id="O-vCtn7rAmnMu4Nd3cpN">
    <mxGraphModel dx="1659" dy="879" grid="1" gridSize="10" guides="1" tooltips="1" connect="1" arrows="1" fold="1" page="1" pageScale="1" pageWidth="827" pageHeight="1169" math="0" shadow="0">
      <root>
        <mxCell id="0" />
        <mxCell id="1" parent="0" />
        <mxCell id="uBPzEO05of01hK2FzoKY-1" value="S0" style="ellipse;whiteSpace=wrap;html=1;aspect=fixed;fontStyle=0;fontSize=16;" vertex="1" parent="1">
          <mxGeometry x="120" y="240" width="80" height="80" as="geometry" />
        </mxCell>
        <mxCell id="uBPzEO05of01hK2FzoKY-2" value="S1" style="ellipse;whiteSpace=wrap;html=1;aspect=fixed;fontStyle=0;fontSize=16;" vertex="1" parent="1">
          <mxGeometry x="280" y="120" width="80" height="80" as="geometry" />
        </mxCell>
        <mxCell id="uBPzEO05of01hK2FzoKY-4" value="S2" style="ellipse;whiteSpace=wrap;html=1;aspect=fixed;fontStyle=0;fontSize=16;" vertex="1" parent="1">
          <mxGeometry x="280" y="390" width="80" height="80" as="geometry" />
        </mxCell>
        <mxCell id="uBPzEO05of01hK2FzoKY-11" value="" style="endArrow=classic;html=1;rounded=0;entryX=0.006;entryY=0.664;entryDx=0;entryDy=0;entryPerimeter=0;fontStyle=0;fontSize=16;" edge="1" parent="1" source="uBPzEO05of01hK2FzoKY-1" target="uBPzEO05of01hK2FzoKY-2">
          <mxGeometry width="50" height="50" relative="1" as="geometry">
            <mxPoint x="310" y="330" as="sourcePoint" />
            <mxPoint x="360" y="280" as="targetPoint" />
          </mxGeometry>
        </mxCell>
        <mxCell id="uBPzEO05of01hK2FzoKY-13" value="0/0" style="edgeLabel;html=1;align=center;verticalAlign=middle;resizable=0;points=[];fontStyle=0;fontSize=16;" vertex="1" connectable="0" parent="uBPzEO05of01hK2FzoKY-11">
          <mxGeometry x="0.0248" y="1" relative="1" as="geometry">
            <mxPoint as="offset" />
          </mxGeometry>
        </mxCell>
        <mxCell id="uBPzEO05of01hK2FzoKY-12" value="" style="endArrow=classic;html=1;rounded=0;fontStyle=0;fontSize=16;fillColor=#60a917;strokeColor=#2D7600;" edge="1" parent="1" source="uBPzEO05of01hK2FzoKY-1" target="uBPzEO05of01hK2FzoKY-4">
          <mxGeometry width="50" height="50" relative="1" as="geometry">
            <mxPoint x="310" y="330" as="sourcePoint" />
            <mxPoint x="360" y="280" as="targetPoint" />
          </mxGeometry>
        </mxCell>
        <mxCell id="uBPzEO05of01hK2FzoKY-14" value="1/0" style="edgeLabel;html=1;align=center;verticalAlign=middle;resizable=0;points=[];fontStyle=0;fontSize=16;" vertex="1" connectable="0" parent="uBPzEO05of01hK2FzoKY-12">
          <mxGeometry x="-0.2097" relative="1" as="geometry">
            <mxPoint as="offset" />
          </mxGeometry>
        </mxCell>
        <mxCell id="uBPzEO05of01hK2FzoKY-15" value="&lt;font&gt;S3&lt;/font&gt;" style="ellipse;whiteSpace=wrap;html=1;aspect=fixed;fontSize=16;" vertex="1" parent="1">
          <mxGeometry x="440" y="40" width="80" height="80" as="geometry" />
        </mxCell>
        <mxCell id="uBPzEO05of01hK2FzoKY-16" value="&lt;font&gt;S5&lt;/font&gt;" style="ellipse;whiteSpace=wrap;html=1;aspect=fixed;fontSize=16;" vertex="1" parent="1">
          <mxGeometry x="440" y="160" width="80" height="80" as="geometry" />
        </mxCell>
        <mxCell id="uBPzEO05of01hK2FzoKY-20" value="" style="endArrow=classic;html=1;rounded=0;fontStyle=0;fontSize=16;" edge="1" parent="1" source="uBPzEO05of01hK2FzoKY-2" target="uBPzEO05of01hK2FzoKY-15">
          <mxGeometry width="50" height="50" relative="1" as="geometry">
            <mxPoint x="205" y="231" as="sourcePoint" />
            <mxPoint x="290" y="183" as="targetPoint" />
          </mxGeometry>
        </mxCell>
        <mxCell id="uBPzEO05of01hK2FzoKY-21" value="0/0" style="edgeLabel;html=1;align=center;verticalAlign=middle;resizable=0;points=[];fontStyle=0;fontSize=16;" vertex="1" connectable="0" parent="uBPzEO05of01hK2FzoKY-20">
          <mxGeometry x="0.0248" y="1" relative="1" as="geometry">
            <mxPoint as="offset" />
          </mxGeometry>
        </mxCell>
        <mxCell id="uBPzEO05of01hK2FzoKY-22" value="" style="endArrow=classic;html=1;rounded=0;fontStyle=0;fontSize=16;" edge="1" parent="1" source="uBPzEO05of01hK2FzoKY-2" target="uBPzEO05of01hK2FzoKY-16">
          <mxGeometry width="50" height="50" relative="1" as="geometry">
            <mxPoint x="206" y="268" as="sourcePoint" />
            <mxPoint x="294" y="312" as="targetPoint" />
          </mxGeometry>
        </mxCell>
        <mxCell id="uBPzEO05of01hK2FzoKY-23" value="1/0" style="edgeLabel;html=1;align=center;verticalAlign=middle;resizable=0;points=[];fontStyle=0;fontSize=16;" vertex="1" connectable="0" parent="uBPzEO05of01hK2FzoKY-22">
          <mxGeometry x="-0.2097" relative="1" as="geometry">
            <mxPoint as="offset" />
          </mxGeometry>
        </mxCell>
        <mxCell id="uBPzEO05of01hK2FzoKY-24" value="S5" style="ellipse;whiteSpace=wrap;html=1;aspect=fixed;fontStyle=0;fontSize=16;" vertex="1" parent="1">
          <mxGeometry x="440" y="310" width="80" height="80" as="geometry" />
        </mxCell>
        <mxCell id="uBPzEO05of01hK2FzoKY-25" value="" style="endArrow=classic;html=1;rounded=0;entryX=0.006;entryY=0.664;entryDx=0;entryDy=0;entryPerimeter=0;fontStyle=0;fontSize=16;exitX=1;exitY=0.5;exitDx=0;exitDy=0;fillColor=#60a917;strokeColor=#2D7600;" edge="1" parent="1" target="uBPzEO05of01hK2FzoKY-24" source="uBPzEO05of01hK2FzoKY-4">
          <mxGeometry width="50" height="50" relative="1" as="geometry">
            <mxPoint x="397.5" y="391" as="sourcePoint" />
            <mxPoint x="562.5" y="410" as="targetPoint" />
          </mxGeometry>
        </mxCell>
        <mxCell id="uBPzEO05of01hK2FzoKY-26" value="0/0" style="edgeLabel;html=1;align=center;verticalAlign=middle;resizable=0;points=[];fontStyle=0;fontSize=16;" vertex="1" connectable="0" parent="uBPzEO05of01hK2FzoKY-25">
          <mxGeometry x="0.0248" y="1" relative="1" as="geometry">
            <mxPoint as="offset" />
          </mxGeometry>
        </mxCell>
        <mxCell id="uBPzEO05of01hK2FzoKY-32" value="&lt;font&gt;S6&lt;/font&gt;" style="ellipse;whiteSpace=wrap;html=1;aspect=fixed;fontSize=16;" vertex="1" parent="1">
          <mxGeometry x="440" y="467.55" width="80" height="80" as="geometry" />
        </mxCell>
        <mxCell id="uBPzEO05of01hK2FzoKY-33" value="" style="endArrow=classic;html=1;rounded=0;fontStyle=0;fontSize=16;exitX=1;exitY=1;exitDx=0;exitDy=0;" edge="1" parent="1" target="uBPzEO05of01hK2FzoKY-32" source="uBPzEO05of01hK2FzoKY-4">
          <mxGeometry width="50" height="50" relative="1" as="geometry">
            <mxPoint x="337.01349483950185" y="459.9988638070883" as="sourcePoint" />
            <mxPoint x="294" y="619.55" as="targetPoint" />
          </mxGeometry>
        </mxCell>
        <mxCell id="uBPzEO05of01hK2FzoKY-34" value="1/0" style="edgeLabel;html=1;align=center;verticalAlign=middle;resizable=0;points=[];fontStyle=0;fontSize=16;" vertex="1" connectable="0" parent="uBPzEO05of01hK2FzoKY-33">
          <mxGeometry x="-0.2097" relative="1" as="geometry">
            <mxPoint as="offset" />
          </mxGeometry>
        </mxCell>
      </root>
    </mxGraphModel>
  </diagram>
</mxfile>
